<?xml version="1.0" encoding="UTF-8" standalone="no"?>
<svg version="1.1" xmlns="http://www.w3.org/2000/svg" xmlns:xlink="http://www.w3.org/1999/xlink" width="342.08" height="293.44">
	<path id="Capital_D_by_Adam_Stanislav" transform="matrix(1,0,0,1,-225.901,-414.848)" fill="black" d="M 292.115,652.953 C 311.723,653.031 331.473,656.596 350.259,661.353 C 365.393,664.959 379.519,671.216 393.576,677.644 C 392.204,680.911 390.34,683.972 387.859,686.737 C 386.992,687.056 386.107,687.373 385.244,687.664 C 357.117,694.689 326.716,696.149 298.632,688.247 C 284.759,683.316 261.943,672.531 264.981,655.336 C 273.921,653.636 283.003,652.917 292.115,652.953 Z M 450.047,452.464 C 485.521,470.835 516.269,498.631 534.223,534.456 C 557.924,580.129 544.373,640.356 505.021,672.885 C 503.024,674.259 501.628,675.245 500.712,675.925 C 480.848,684.087 457.829,683.472 438.252,674.315 C 431.463,671.121 424.628,667.953 417.737,664.899 C 419.652,658.967 420.321,652.552 419.816,646.405 C 418.291,626.571 414.403,607.115 409.901,587.765 C 425.537,581.683 440.447,573.589 454.488,564.399 C 461.953,557.76 484.273,548.437 477.572,537.415 L 461.66,548.033 C 452.669,552.788 450.577,561.407 439.659,567.768 C 438.931,568.241 438.347,568.624 437.784,568.995 C 428.209,573.473 418.213,576.997 407.972,579.616 C 404.051,563.279 399.869,546.991 396.48,530.584 C 391.839,506.505 388.319,476.895 405.48,456.972 C 414.299,455.784 426.899,456.747 429.999,466.356 L 442.145,458.116 C 445.728,456.276 448.659,454.409 450.047,452.464 Z M 357.396,428.627 C 373.804,428.573 390.247,430.828 406.032,435.12 C 412.417,436.912 418.757,438.991 425.019,441.341 C 413.079,443.832 401.745,452.368 391.463,458.253 C 369.589,471.075 367.947,500.209 370.467,522.761 C 373.569,543.471 378.709,563.768 383.704,584.103 C 371.907,585.488 359.979,585.779 348.169,585.037 C 313.34,582.741 274.087,571.617 255.331,539.568 C 239.395,510.72 253.496,474.967 276.604,454.488 C 266.876,458.847 286.155,446.655 293.368,441.763 C 296.099,440.404 298.565,439.312 299.357,439.389 C 317.84,432.121 337.593,428.692 357.396,428.627 Z M 374.405,414.764 C 353.141,414.799 331.971,418.685 311.992,427.219 C 281.256,442.312 247.736,460.095 232.867,492.84 C 219.983,518.295 225.469,551.679 247.752,570.099 C 279.056,597.253 323.416,602.371 363.264,598.883 C 371.104,598.232 378.817,596.957 386.388,595.153 C 389.268,607.195 391.959,619.279 394.007,631.495 C 395.247,639.188 396.692,647.757 396.912,656.185 C 376.791,648.351 356.083,642.212 334.452,639.919 C 308.091,637.424 278.28,634.756 255.827,651.551 C 238.657,656.496 236.169,677.792 251.011,687.437 C 278.179,710.205 315.945,710.26 349.36,706.323 C 367.791,704.924 384.141,696.079 399.376,686.296 C 401.495,685.377 403.441,684.252 405.223,682.952 C 414.44,687.095 423.739,691.019 433.383,694.029 C 458.484,701.735 484.409,692.055 505.656,678.723 C 544.735,659.633 568.107,616.203 567.961,573.448 C 567.237,523.445 532.779,480.695 493.124,453.579 C 458.839,429.68 416.439,414.696 374.405,414.764 Z "/>
</svg>